<?xml version="1.0" encoding="UTF-8" standalone="no"?>
<!DOCTYPE svg PUBLIC "-//W3C//DTD SVG 1.1//EN" "http://www.w3.org/Graphics/SVG/1.1/DTD/svg11.dtd">
<svg width="100%" height="100%" viewBox="0 0 1669 1651" version="1.1" xmlns="http://www.w3.org/2000/svg" xmlns:xlink="http://www.w3.org/1999/xlink" xml:space="preserve" xmlns:serif="http://www.serif.com/" style="fill-rule:evenodd;clip-rule:evenodd;stroke-linecap:round;stroke-linejoin:round;stroke-miterlimit:1.5;">
    <g id="Artboard1" transform="matrix(1,0,0,1,-377.518,-19.6096)">
        <rect x="377.518" y="19.61" width="1668.22" height="1650.23" style="fill:none;"/>
        <clipPath id="_clip1">
            <rect x="377.518" y="19.61" width="1668.22" height="1650.23"/>
        </clipPath>
        <g clip-path="url(#_clip1)">
            <g transform="matrix(2.94702,0,0,202.54,2527.58,33840.8)">
                <rect x="-756.808" y="-167.214" width="626.453" height="9.34" style="fill:white;"/>
            </g>
            <g transform="matrix(1.36358,0,0,0.484268,108.051,631.163)">
                <rect x="556.29" y="1208.94" width="656.163" height="164.812" style="fill:white;stroke:black;stroke-width:4.07px;"/>
            </g>
            <g transform="matrix(1.36358,0,0,0.484268,108.051,99.6667)">
                <rect x="556.29" y="1208.94" width="656.163" height="164.812" style="fill:white;stroke:black;stroke-width:4.07px;"/>
            </g>
            <g transform="matrix(1.36358,0,0,0.484268,99.9758,-254.664)">
                <rect x="556.29" y="1208.94" width="656.163" height="164.812" style="fill:white;stroke:black;stroke-width:4.07px;"/>
            </g>
            <g transform="matrix(1.36358,0,0,0.484268,108.051,-77.4987)">
                <rect x="556.29" y="1208.94" width="656.163" height="164.812" style="fill:white;stroke:black;stroke-width:4.07px;"/>
            </g>
            <g transform="matrix(1.36358,0,0,0.484268,108.132,276.832)">
                <rect x="556.29" y="1208.94" width="656.163" height="164.812" style="fill:white;stroke:black;stroke-width:4.07px;"/>
            </g>
            <g transform="matrix(1.36358,0,0,0.484268,108.051,453.998)">
                <rect x="556.29" y="1208.94" width="656.163" height="164.812" style="fill:white;stroke:black;stroke-width:4.07px;"/>
            </g>
            <g transform="matrix(1,0,0,1,464.741,1273.28)">
                <text x="0px" y="0px" style="font-family:'ArialMT', 'Arial', sans-serif;font-size:50px;">Link Repository</text>
            </g>
            <g id="Button" transform="matrix(1,0,0,1,803.558,335.612)">
                <g id="Frame" transform="matrix(1,0,0,1,-26.5668,-152.792)">
                    <path d="M732.922,1290C732.922,1251.12 701.357,1219.56 662.477,1219.56L409.905,1219.56C371.026,1219.56 339.461,1251.12 339.461,1290C339.461,1328.88 371.026,1360.45 409.905,1360.45L662.477,1360.45C701.357,1360.45 732.922,1328.88 732.922,1290Z" style="fill:rgb(254,39,18);"/>
                </g>
                <g id="Label" transform="matrix(1,0,0,1,443.174,1157.96)">
                    <text x="0px" y="0px" style="font-family:'Arial-BoldMT', 'Arial', sans-serif;font-weight:700;font-size:58.333px;">Invia</text>
                </g>
            </g>
            <g transform="matrix(1,0,0,1,314.777,-0.653946)">
                <g transform="matrix(1,0,0,1,484.487,157.816)">
                    <text x="0px" y="0px" style="font-family:'HelveticaNeue-Medium', 'Helvetica Neue', sans-serif;font-weight:500;font-size:100px;fill:rgb(38,38,38);">Aggiungi un pr</text>
                </g>
                <g transform="matrix(1,0,0,1,1156.99,157.816)">
                    <text x="0px" y="0px" style="font-family:'HelveticaNeue-Medium', 'Helvetica Neue', sans-serif;font-weight:500;font-size:100px;fill:rgb(38,38,38);">ogetto</text>
                </g>
            </g>
        </g>
    </g>
</svg>
